<svg xmlns="http://www.w3.org/2000/svg" viewBox="0 0 480 300" width="480" height="300" role="img" aria-label="Miniatura: CONFIABILIDADE">
  <defs><pattern id="d" width="22" height="22" patternUnits="userSpaceOnUse"><path d="M22 0H0V22" fill="none" stroke="#E1E6EC" stroke-width="1"/></pattern></defs>
  <rect width="480" height="300" fill="#FFFFFF"/>
  <rect width="480" height="300" fill="url(#d)" opacity="0.7"/>
  
    <rect x="120" y="70" width="48" height="34" rx="4" fill="#C9D2DA"/><rect x="175" y="70" width="48" height="34" rx="4" fill="#C9D2DA"/><rect x="230" y="70" width="48" height="34" rx="4" fill="#C9D2DA"/><rect x="285" y="70" width="48" height="34" rx="4" fill="#8FB9BC"/><rect x="120" y="110" width="48" height="34" rx="4" fill="#C9D2DA"/><rect x="175" y="110" width="48" height="34" rx="4" fill="#C9D2DA"/><rect x="230" y="110" width="48" height="34" rx="4" fill="#8FB9BC"/><rect x="285" y="110" width="48" height="34" rx="4" fill="#8FB9BC"/><rect x="120" y="150" width="48" height="34" rx="4" fill="#C9D2DA"/><rect x="175" y="150" width="48" height="34" rx="4" fill="#8FB9BC"/><rect x="230" y="150" width="48" height="34" rx="4" fill="#8FB9BC"/><rect x="285" y="150" width="48" height="34" rx="4" fill="#0E6E77"/><rect x="120" y="190" width="48" height="34" rx="4" fill="#8FB9BC"/><rect x="175" y="190" width="48" height="34" rx="4" fill="#8FB9BC"/><rect x="230" y="190" width="48" height="34" rx="4" fill="#0E6E77"/><rect x="285" y="190" width="48" height="34" rx="4" fill="#0E6E77"/>
    <text x="345" y="150" font-family="'JetBrains Mono',monospace" font-size="34" font-weight="700" fill="#12161C">RCM</text>
  <text x="24" y="272" font-family="'JetBrains Mono',monospace" font-size="12" letter-spacing="2" fill="#57616F">fmea · dmaic</text>
  <text x="456" y="272" text-anchor="end" font-family="'JetBrains Mono',monospace" font-size="11" letter-spacing="2" fill="#0E6E77">CONFIABILIDADE</text>
</svg>