<svg xmlns="http://www.w3.org/2000/svg" viewBox="0 0 480 300" width="480" height="300" role="img" aria-label="Miniatura: SAP S/4HANA">
  <defs><pattern id="d" width="22" height="22" patternUnits="userSpaceOnUse"><path d="M22 0H0V22" fill="none" stroke="#E1E6EC" stroke-width="1"/></pattern></defs>
  <rect width="480" height="300" fill="#FFFFFF"/>
  <rect width="480" height="300" fill="url(#d)" opacity="0.7"/>
  
    <path d="M110 190 A70 70 0 0 1 250 190" fill="none" stroke="#C9D2DA" stroke-width="14"/>
    <path d="M110 190 A70 70 0 0 1 205 128" fill="none" stroke="#0E6E77" stroke-width="14"/>
    <circle cx="180" cy="190" r="6" fill="#12161C"/>
    <line x1="180" y1="190" x2="215" y2="150" stroke="#12161C" stroke-width="3"/>
    <rect x="300" y="96" width="100" height="14" rx="4" fill="#0E6E77"/>
    <rect x="300" y="122" width="80" height="10" rx="4" fill="#C9D2DA"/>
    <rect x="300" y="144" width="90" height="10" rx="4" fill="#C9D2DA"/>
    <rect x="300" y="166" width="70" height="10" rx="4" fill="#C9D2DA"/>
  <text x="24" y="272" font-family="'JetBrains Mono',monospace" font-size="12" letter-spacing="2" fill="#57616F">asset management</text>
  <text x="456" y="272" text-anchor="end" font-family="'JetBrains Mono',monospace" font-size="11" letter-spacing="2" fill="#0E6E77">SAP S/4HANA</text>
</svg>